<svg xmlns="http://www.w3.org/2000/svg" viewBox="0 0 128 128" width="128" height="128">
  <rect x="4" y="4" width="120" height="120" rx="28" fill="#1db954"/>
  <!-- tray / library -->
  <path d="M28 78 v18 a8 8 0 0 0 8 8 h56 a8 8 0 0 0 8 -8 v-18"
        fill="none" stroke="#fff" stroke-width="10" stroke-linecap="round" stroke-linejoin="round"/>
  <!-- cube being imported -->
  <g transform="translate(64 44)">
    <path d="M0 -26 L22 -13 L22 13 L0 26 L-22 13 L-22 -13 Z" fill="#0f5c2c"/>
    <path d="M0 -26 L22 -13 L0 0 L-22 -13 Z" fill="#fff"/>
    <path d="M-22 -13 L0 0 L0 26 L-22 13 Z" fill="#d7f5e3"/>
    <path d="M22 -13 L0 0 L0 26 L22 13 Z" fill="#a7e8c0"/>
  </g>
  <!-- down arrow -->
  <path d="M64 58 v24 M50 70 L64 84 L78 70" fill="none" stroke="#fff" stroke-width="10"
        stroke-linecap="round" stroke-linejoin="round"/>
</svg>
